<svg width="50" height="50" viewBox="0 0 50 50" fill="none" xmlns="http://www.w3.org/2000/svg">
<circle opacity="0.6" cx="25" cy="25" r="25" fill="#F1F0F0"/>
<g clip-path="url(#clip0_0_1)">
<path d="M33.1375 25.1778C33.1375 24.52 33.083 24.04 32.9652 23.5422H25.3008V26.5111H29.7996C29.7089 27.2489 29.2191 28.36 28.1307 29.1066L28.1154 29.206L30.5388 31.0458L30.7067 31.0622C32.2486 29.6667 33.1375 27.6133 33.1375 25.1778Z" fill="#85D1A0"/>
<path d="M25.3004 33C27.5044 33 29.3547 32.2888 30.7063 31.0622L28.1303 29.1066C27.441 29.5777 26.5158 29.9066 25.3004 29.9066C23.1417 29.9066 21.3095 28.5111 20.6564 26.5822L20.5606 26.5901L18.0408 28.5013L18.0079 28.591C19.3503 31.2044 22.1076 33 25.3004 33Z" fill="#85D1A0"/>
<path d="M20.6568 26.5822C20.4845 26.0844 20.3847 25.551 20.3847 24.9999C20.3847 24.4488 20.4845 23.9155 20.6477 23.4177L20.6432 23.3117L18.0918 21.3699L18.0083 21.4088C17.455 22.4932 17.1376 23.711 17.1376 24.9999C17.1376 26.2888 17.455 27.5066 18.0083 28.591L20.6568 26.5822Z" fill="#85D1A0"/>
<path d="M25.3004 20.0933C26.8333 20.0933 27.8673 20.7422 28.4569 21.2845L30.7607 19.08C29.3458 17.7911 27.5045 17 25.3004 17C22.1076 17 19.3503 18.7955 18.0079 21.4089L20.6473 23.4178C21.3095 21.4889 23.1417 20.0933 25.3004 20.0933Z" fill="#85D1A0"/>
</g>
<defs>
<clipPath id="clip0_0_1">
<rect width="24" height="24" fill="white" transform="translate(13 13)"/>
</clipPath>
</defs>
</svg>
