<svg width="50" height="50" viewBox="0 0 50 50" fill="none" xmlns="http://www.w3.org/2000/svg">
<circle opacity="0.6" cx="25" cy="25" r="25" fill="#F1F0F0"/>
<g clip-path="url(#clip0_0_1)">
<path d="M35 17.01C34 17.5 33.02 17.699 32 18C30.879 16.735 29.217 16.665 27.62 17.263C26.023 17.861 24.977 19.323 25 21V22C21.755 22.083 18.865 20.605 17 18C17 18 12.818 25.433 21 29C19.128 30.247 17.261 31.088 15 31C18.308 32.803 21.913 33.423 25.034 32.517C28.614 31.477 31.556 28.794 32.685 24.775C33.0218 23.5527 33.189 22.2899 33.182 21.022C33.18 20.773 34.692 18.25 35 17.009V17.01Z" fill="#85D1A0"/>
</g>
<defs>
<clipPath id="clip0_0_1">
<rect width="24" height="24" fill="white" transform="translate(13 13)"/>
</clipPath>
</defs>
</svg>
